<svg width="24" height="24" viewBox="0 0 24 24" fill="none" xmlns="http://www.w3.org/2000/svg">
<path d="M19.95 21C20.1167 21 20.2917 20.9957 20.475 20.987C20.6583 20.9783 20.8333 20.966 21 20.95V15.1L16 14.1L13.1 17C11.8333 16.2333 10.6707 15.325 9.612 14.275C8.55333 13.225 7.67433 12.1 6.975 10.9L9.825 8.025L8.9 3H3.05C3.01667 3.16667 3 3.34167 3 3.525V4.05C3 6.2 3.479 8.296 4.437 10.338C5.395 12.38 6.66167 14.1923 8.237 15.775C9.81233 17.3583 11.6207 18.625 13.662 19.575C15.7033 20.525 17.7993 21 19.95 21Z" fill="#145096"/>
</svg>
