<svg width="46" height="46" viewBox="0 0 46 46" fill="none" xmlns="http://www.w3.org/2000/svg">
<circle cx="23" cy="23" r="23" fill="#145096" fill-opacity="0.1"/>
<path fill-rule="evenodd" clip-rule="evenodd" d="M14.5 21.3178C14.5 16.7179 18.3439 13 22.9934 13C27.6561 13 31.5 16.7179 31.5 21.3178C31.5 23.6357 30.657 25.7876 29.2695 27.6116C27.7388 29.6235 25.8522 31.3765 23.7285 32.7524C23.2425 33.0704 22.8039 33.0944 22.2704 32.7524C20.1347 31.3765 18.2481 29.6235 16.7305 27.6116C15.342 25.7876 14.5 23.6357 14.5 21.3178ZM20.1942 21.5768C20.1942 23.1177 21.4517 24.3297 22.9934 24.3297C24.5362 24.3297 25.8058 23.1177 25.8058 21.5768C25.8058 20.0478 24.5362 18.7768 22.9934 18.7768C21.4517 18.7768 20.1942 20.0478 20.1942 21.5768Z" fill="#145096"/>
</svg>
