<svg width="46" height="46" viewBox="0 0 46 46" fill="none" xmlns="http://www.w3.org/2000/svg">
<circle cx="23" cy="23" r="23" fill="#145096" fill-opacity="0.1"/>
<path fill-rule="evenodd" clip-rule="evenodd" d="M27.9395 14C29.2805 14 30.5705 14.53 31.5195 15.481C32.4695 16.43 33.0005 17.71 33.0005 19.05V26.95C33.0005 29.74 30.7305 32 27.9395 32H18.0605C15.2695 32 13.0005 29.74 13.0005 26.95V19.05C13.0005 16.26 15.2595 14 18.0605 14H27.9395ZM29.5305 20.54L29.6105 20.46C29.8495 20.17 29.8495 19.75 29.5995 19.46C29.4605 19.311 29.2695 19.22 29.0705 19.2C28.8605 19.189 28.6605 19.26 28.5095 19.4L24.0005 23C23.4205 23.481 22.5895 23.481 22.0005 23L17.5005 19.4C17.1895 19.17 16.7595 19.2 16.5005 19.47C16.2305 19.74 16.2005 20.17 16.4295 20.47L16.5605 20.6L21.1105 24.15C21.6705 24.59 22.3495 24.83 23.0605 24.83C23.7695 24.83 24.4605 24.59 25.0195 24.15L29.5305 20.54Z" fill="#145096"/>
</svg>
